<svg xmlns="http://www.w3.org/2000/svg" xmlns:xlink="http://www.w3.org/1999/xlink" width="500" zoomAndPan="magnify" viewBox="0 0 375 112.499997" height="150" preserveAspectRatio="xMidYMid meet" version="1.0"><defs><g/><clipPath id="896b1518ab"><path d="M 0.828125 0 L 374.167969 0 L 374.167969 112.003906 L 0.828125 112.003906 Z M 0.828125 0 " clip-rule="nonzero"/></clipPath><clipPath id="b54c6272e6"><path d="M 0.839844 4.589844 L 374.160156 4.589844 L 374.160156 107.257812 L 0.839844 107.257812 Z M 0.839844 4.589844 " clip-rule="nonzero"/></clipPath><clipPath id="f73821acf5"><path d="M 10.914062 14.253906 L 187.5 14.253906 L 187.5 97.75 L 10.914062 97.75 Z M 10.914062 14.253906 " clip-rule="nonzero"/></clipPath></defs><g clip-path="url(#896b1518ab)"><path fill="#ffffff" d="M 0.828125 0 L 374.171875 0 L 374.171875 119.46875 L 0.828125 119.46875 Z M 0.828125 0 " fill-opacity="1" fill-rule="nonzero"/><path fill="#ffffff" d="M 0.828125 0 L 374.171875 0 L 374.171875 112.003906 L 0.828125 112.003906 Z M 0.828125 0 " fill-opacity="1" fill-rule="nonzero"/><path fill="#ffffff" d="M 0.828125 0 L 374.171875 0 L 374.171875 112.003906 L 0.828125 112.003906 Z M 0.828125 0 " fill-opacity="1" fill-rule="nonzero"/></g><g clip-path="url(#b54c6272e6)"><path stroke-linecap="butt" transform="matrix(1.866703, 0, 0, 1.864056, 0.841354, 4.590622)" fill="none" stroke-linejoin="miter" d="M -0.000809024 -0.000417561 L 199.988279 -0.000417561 L 199.988279 55.077323 L -0.000809024 55.077323 L -0.000809024 -0.000417561 " stroke="#000000" stroke-width="0.8" stroke-opacity="1" stroke-miterlimit="4"/></g><g clip-path="url(#f73821acf5)"><path fill="#000000" d="M 10.914062 14.253906 L 187.023438 14.253906 L 187.023438 97.125 L 10.914062 97.125 Z M 10.914062 14.253906 " fill-opacity="1" fill-rule="nonzero"/></g><g fill="#ffffff" fill-opacity="1"><g transform="translate(46.227079, 69.009834)"><g><path d="M 4.085938 0 L 7.613281 0 L 7.613281 -28.050781 L 4.085938 -28.050781 Z M 4.085938 0 "/></g></g></g><g fill="#ffffff" fill-opacity="1"><g transform="translate(60.969681, 69.009834)"><g><path d="M 11.859375 0 L 15.148438 0 L 26.285156 -28.050781 L 22.558594 -28.050781 L 17.871094 -16.230469 L 13.503906 -5.089844 L 9.097656 -16.230469 L 4.449219 -28.050781 L 0.679688 -28.050781 Z M 11.859375 0 "/></g></g></g><g fill="#ffffff" fill-opacity="1"><g transform="translate(90.974414, 69.009834)"><g><path d="M 0.679688 0 L 4.449219 0 L 7.011719 -6.371094 L 20.675781 -6.371094 L 23.320312 0 L 27.046875 0 L 15.507812 -28.050781 L 12.222656 -28.050781 Z M 8.375 -9.65625 L 13.863281 -23.121094 L 19.355469 -9.65625 Z M 8.375 -9.65625 "/></g></g></g><g fill="#ffffff" fill-opacity="1"><g transform="translate(121.740243, 69.009834)"><g><path d="M 4.085938 0 L 7.574219 0 L 7.574219 -21.960938 L 23.082031 0 L 26.367188 0 L 26.367188 -28.050781 L 22.921875 -28.050781 L 22.921875 -6.089844 L 7.414062 -28.050781 L 4.085938 -28.050781 Z M 4.085938 0 "/></g></g></g><g fill="#000000" fill-opacity="1"><g transform="translate(224.974853, 43.329826)"><g><path d="M 13.777344 0.515625 C 20.410156 0.515625 25.425781 -3.503906 26.457031 -9.621094 L 19.410156 -9.621094 C 18.554688 -7.351562 16.527344 -5.910156 13.914062 -5.910156 C 10.546875 -5.910156 8.210938 -8.417969 8.210938 -12.023438 C 8.210938 -15.667969 10.582031 -18.140625 13.984375 -18.140625 C 16.492188 -18.140625 18.585938 -16.730469 19.308594 -14.566406 L 26.316406 -14.566406 C 25.082031 -20.648438 20.132812 -24.566406 13.707031 -24.566406 C 6.289062 -24.566406 1.167969 -19.445312 1.167969 -12.023438 C 1.167969 -4.605469 6.289062 0.515625 13.777344 0.515625 Z M 13.777344 0.515625 "/></g></g></g><g fill="#000000" fill-opacity="1"><g transform="translate(252.529106, 43.329826)"><g><path d="M 16.902344 0 L 23.84375 0 L 23.84375 -24.050781 L 16.902344 -24.050781 L 16.902344 -15.425781 L 9.484375 -15.425781 L 9.484375 -24.050781 L 2.542969 -24.050781 L 2.542969 0 L 9.484375 0 L 9.484375 -9.035156 L 16.902344 -9.035156 Z M 16.902344 0 "/></g></g></g><g fill="#000000" fill-opacity="1"><g transform="translate(278.915217, 43.329826)"><g><path d="M 0.171875 0 L 7.523438 0 L 8.828125 -3.402344 L 17.042969 -3.402344 L 18.347656 0 L 25.734375 0 L 16.386719 -24.050781 L 9.515625 -24.050781 Z M 10.273438 -8.488281 L 12.953125 -15.941406 L 15.632812 -8.488281 Z M 10.273438 -8.488281 "/></g></g></g><g fill="#000000" fill-opacity="1"><g transform="translate(304.820338, 43.329826)"><g><path d="M 8.28125 0 L 15.1875 0 L 15.1875 -17.625 L 22.503906 -17.625 L 22.503906 -24.050781 L 0.960938 -24.050781 L 0.960938 -17.625 L 8.28125 -17.625 Z M 8.28125 0 "/></g></g></g><g fill="#000000" fill-opacity="1"><g transform="translate(328.28003, 43.329826)"><g/></g></g><g fill="#000000" fill-opacity="1"><g transform="translate(244.167982, 90.409835)"><g><path d="M 0.171875 0 L 7.523438 0 L 8.828125 -3.402344 L 17.042969 -3.402344 L 18.347656 0 L 25.734375 0 L 16.386719 -24.050781 L 9.515625 -24.050781 Z M 10.273438 -8.488281 L 12.953125 -15.941406 L 15.632812 -8.488281 Z M 10.273438 -8.488281 "/></g></g></g><g fill="#000000" fill-opacity="1"><g transform="translate(270.073102, 90.409835)"><g><path d="M 2.542969 0 L 9.484375 0 L 9.484375 -5.945312 L 12.679688 -5.945312 C 18.792969 -5.945312 22.675781 -9.484375 22.675781 -15.015625 C 22.675781 -20.546875 18.792969 -24.050781 12.679688 -24.050781 L 2.542969 -24.050781 Z M 9.414062 -11.75 L 9.414062 -18.210938 L 12.023438 -18.210938 C 14.328125 -18.210938 15.667969 -16.972656 15.667969 -14.980469 C 15.667969 -12.953125 14.328125 -11.75 12.023438 -11.75 Z M 9.414062 -11.75 "/></g></g></g><g fill="#000000" fill-opacity="1"><g transform="translate(293.538868, 90.409835)"><g><path d="M 2.542969 0 L 9.484375 0 L 9.484375 -5.945312 L 12.679688 -5.945312 C 18.792969 -5.945312 22.675781 -9.484375 22.675781 -15.015625 C 22.675781 -20.546875 18.792969 -24.050781 12.679688 -24.050781 L 2.542969 -24.050781 Z M 9.414062 -11.75 L 9.414062 -18.210938 L 12.023438 -18.210938 C 14.328125 -18.210938 15.667969 -16.972656 15.667969 -14.980469 C 15.667969 -12.953125 14.328125 -11.75 12.023438 -11.75 Z M 9.414062 -11.75 "/></g></g></g></svg>